<?xml version="1.0" standalone="no"?>
<!DOCTYPE svg PUBLIC "-//W3C//DTD SVG 20010904//EN"
 "http://www.w3.org/TR/2001/REC-SVG-20010904/DTD/svg10.dtd">
<svg version="1.0" xmlns="http://www.w3.org/2000/svg"
 width="1024.000000pt" height="1024.000000pt" viewBox="0 0 1024.000000 1024.000000"
 preserveAspectRatio="xMidYMid meet">

<g transform="translate(0.000000,1024.000000) scale(0.100000,-0.100000)"
fill="#000000" stroke="none">
<path d="M4940 8439 c-892 -47 -1728 -424 -2356 -1061 -164 -165 -237 -250
-348 -403 -149 -204 -262 -397 -366 -624 -350 -766 -404 -1637 -149 -2434 31
-97 38 -131 30 -141 -13 -16 -6 -39 23 -81 34 -49 106 -176 132 -234 98 -218
355 -595 542 -793 35 -37 62 -71 60 -76 -1 -4 -55 -83 -118 -174 -166 -242
-174 -261 -150 -349 13 -46 79 -122 133 -153 70 -40 101 -40 223 -1 18 6 21 0
33 -60 16 -88 45 -149 95 -196 65 -63 118 -84 209 -83 60 1 77 -2 77 -13 0
-28 40 -92 79 -124 22 -19 128 -79 237 -133 224 -113 267 -124 343 -87 l43 20
30 -30 c41 -41 120 -79 177 -86 85 -10 118 10 206 122 l20 25 65 -15 c69 -17
80 -26 80 -65 1 -121 114 -220 252 -220 45 0 104 22 135 51 l21 21 36 -40 c20
-22 60 -50 89 -63 47 -22 65 -24 197 -24 121 1 159 5 230 24 190 53 340 162
423 310 27 47 31 51 41 35 6 -11 13 -56 17 -101 8 -98 32 -144 92 -175 50 -25
134 -21 242 12 82 26 128 67 145 129 14 54 7 91 -37 169 -32 58 -37 92 -14 92
5 0 28 -37 52 -82 70 -137 101 -168 181 -183 84 -16 212 54 245 132 16 39 17
107 2 135 -10 18 -9 20 7 14 11 -4 48 -25 84 -46 103 -62 174 -69 256 -27 72
37 133 127 134 194 0 18 -9 56 -20 85 -11 29 -20 54 -20 56 0 1 18 -7 40 -18
92 -47 237 -63 352 -39 242 51 468 290 468 496 0 59 -172 354 -241 414 l-31
27 82 88 c192 208 362 448 505 712 42 78 83 142 90 142 32 0 165 152 165 188
0 7 -17 20 -39 29 l-38 15 28 66 c34 83 101 304 119 396 12 59 20 73 57 109
48 46 50 54 25 96 -17 28 -17 36 -4 128 20 133 22 648 4 798 -76 623 -331
1238 -719 1735 -576 737 -1425 1225 -2340 1345 -112 14 -436 36 -493 33 -14 0
-90 -4 -170 -9z m393 -293 c478 -20 1022 -186 1458 -447 887 -529 1484 -1456
1584 -2458 17 -178 19 -375 5 -522 -15 -151 -16 -153 -54 -167 -78 -29 -169
-125 -261 -277 -20 -35 -36 -52 -39 -44 -3 8 -7 88 -9 179 -3 102 -12 194 -22
240 -40 180 -120 380 -151 380 -20 0 -19 -1 36 -134 84 -204 114 -385 108
-635 -4 -134 -8 -175 -24 -211 l-19 -45 -6 70 c-4 39 -7 108 -8 155 -2 153
-47 263 -141 343 -51 44 -63 45 -95 12 -30 -29 -31 -63 -9 -185 12 -70 14
-132 8 -348 -7 -261 -7 -263 -24 -224 -23 51 -65 84 -104 80 -27 -3 -31 -7
-34 -38 -3 -35 20 -79 80 -153 21 -26 23 -38 22 -135 -1 -129 -27 -228 -60
-226 -10 1 -83 25 -162 53 -133 47 -522 151 -627 166 -37 6 -45 10 -39 24 51
122 71 219 55 276 -6 22 -31 76 -56 119 l-45 79 35 38 c34 38 35 42 35 117 0
42 -9 109 -19 150 -16 59 -17 72 -5 72 27 0 25 4 -123 353 -52 122 -92 191
-122 207 -12 6 -55 19 -97 30 -79 19 -122 45 -93 54 8 2 37 12 64 20 28 9 72
29 100 44 l49 27 23 -23 c19 -18 23 -34 23 -79 0 -181 164 -340 330 -320 30 4
52 2 56 -4 3 -6 18 -8 33 -5 14 3 58 11 96 19 60 11 70 16 73 36 2 12 -4 31
-14 42 -14 16 -15 23 -4 48 14 36 6 54 -22 45 -17 -5 -19 -2 -16 28 3 32 2 33
-33 32 -42 -1 -145 -64 -154 -95 -4 -11 -23 -26 -43 -35 -34 -14 -41 -13 -104
7 -59 19 -68 25 -73 51 -4 16 -15 34 -26 41 -12 8 -17 18 -13 34 3 12 -2 43
-12 69 l-18 47 27 19 c16 11 29 33 33 54 5 27 12 35 33 40 146 29 231 112 231
224 0 39 8 59 44 113 73 109 91 177 91 347 0 139 -1 147 -28 200 -15 30 -47
72 -70 92 -41 36 -41 37 -16 38 40 0 92 -25 127 -61 28 -29 42 -61 68 -156 2
-7 10 -13 19 -13 26 0 94 39 105 60 8 15 17 19 34 14 50 -12 91 96 67 175 -6
21 -22 53 -35 72 -13 19 -47 70 -74 115 -86 137 -143 171 -274 162 -112 -8
-175 -57 -192 -150 l-7 -37 -72 73 c-82 83 -131 118 -243 175 -133 67 -215 86
-384 86 -139 0 -149 -2 -245 -35 -152 -52 -304 -164 -394 -290 -25 -36 -60
-77 -77 -92 -52 -46 -87 -122 -92 -203 -7 -114 29 -152 68 -74 12 23 24 39 27
36 2 -3 0 -30 -6 -59 -17 -82 -10 -92 62 -85 l59 5 -6 -30 c-3 -17 -6 -36 -6
-43 0 -6 -11 -17 -25 -23 -47 -22 -65 -67 -66 -167 -1 -185 -1 -186 40 -270
47 -95 117 -177 198 -230 105 -71 105 -63 5 -105 -83 -34 -147 -71 -165 -95
-9 -12 -18 -1 -86 105 -61 96 -190 215 -223 206 -13 -3 -48 -11 -78 -19 -30
-7 -70 -22 -89 -33 -18 -10 -58 -34 -88 -51 -31 -18 -59 -33 -64 -33 -5 0 -26
18 -46 41 -42 46 -71 63 -128 74 l-39 7 45 21 c136 66 275 202 341 333 35 71
41 93 45 167 6 97 -7 149 -56 221 -31 44 -31 45 -31 182 l0 137 23 -21 c30
-28 55 -28 61 1 13 63 14 106 5 184 -24 217 -128 377 -292 453 -45 20 -90 40
-101 44 -14 5 -16 9 -7 20 18 21 4 41 -57 84 -129 90 -221 122 -368 129 -197
10 -334 -27 -595 -158 -150 -75 -188 -99 -243 -153 -70 -67 -99 -120 -110
-198 -6 -41 -15 -55 -65 -103 -63 -60 -115 -147 -137 -229 -16 -60 -18 -240
-4 -317 17 -89 71 -187 142 -255 35 -33 73 -67 86 -76 22 -15 22 -18 11 -62
-26 -104 22 -205 119 -253 47 -23 69 -28 132 -27 44 0 89 7 110 16 36 15 36
15 78 -22 58 -52 181 -114 283 -144 77 -22 81 -25 54 -32 -16 -4 -43 -16 -60
-26 -19 -11 -49 -18 -84 -18 -52 0 -57 -2 -112 -55 -32 -31 -67 -55 -79 -55
-29 0 -34 -21 -20 -93 l13 -64 -53 -69 c-30 -38 -76 -92 -102 -121 -26 -28
-48 -61 -48 -71 0 -11 -20 -53 -45 -93 -24 -41 -50 -95 -56 -120 -24 -89 26
-185 118 -230 57 -28 165 -30 261 -5 75 19 75 19 70 5 -2 -6 -30 -20 -63 -31
-72 -24 -188 -109 -233 -171 -41 -57 -56 -123 -43 -191 14 -73 45 -153 85
-213 19 -29 33 -53 30 -53 -11 0 -336 -73 -424 -95 -141 -36 -399 -126 -537
-188 l-123 -55 0 62 c0 96 28 188 85 281 42 69 29 135 -27 135 -23 0 -42 -11
-74 -44 -53 -52 -55 -42 -19 71 39 127 46 169 50 339 5 178 1 193 -51 180 -40
-10 -144 -115 -190 -193 -73 -122 -89 -180 -89 -323 0 -69 3 -150 7 -180 3
-30 4 -46 1 -35 -3 11 -26 51 -51 89 -61 95 -168 300 -208 404 -83 210 -57
416 87 710 34 68 59 126 55 129 -15 16 -40 -17 -94 -129 -100 -204 -139 -362
-130 -531 5 -90 5 -91 -9 -47 -24 78 -61 269 -79 415 -24 188 -24 567 0 744
98 711 398 1331 894 1843 587 607 1376 963 2206 997 94 4 185 6 201 4 17 -1
87 -5 158 -7z m-1022 -956 c10 -6 19 -17 19 -25 0 -12 -15 -15 -65 -15 -57 0
-65 2 -65 19 0 11 6 22 13 24 22 9 78 7 98 -3z m165 -50 c46 -23 57 -40 25
-40 -16 0 -129 45 -140 55 -1 2 0 8 3 14 8 12 50 1 112 -29z m364 -256 c26
-24 40 -45 40 -61 0 -22 -2 -24 -15 -13 -9 7 -34 35 -56 61 -50 59 -30 67 31
13z m-84 -59 c55 -37 73 -55 54 -55 -14 0 -91 53 -109 74 -21 25 -2 19 55 -19z
m-294 -32 c15 -15 28 -36 28 -47 -1 -18 -6 -15 -35 18 -51 58 -46 80 7 29z
m252 -54 c84 -76 69 -91 -19 -19 -41 34 -75 63 -75 66 0 2 9 4 19 4 11 0 45
-23 75 -51z m-514 -34 c6 -8 14 -43 16 -77 4 -66 3 -65 -28 32 -6 19 -13 41
-15 48 -7 17 12 15 27 -3z m2135 -15 c136 -43 273 -126 363 -217 28 -30 52
-62 53 -71 0 -9 1 -35 3 -57 l2 -41 -50 18 c-39 14 -67 17 -119 12 -122 -11
-124 -20 -7 -20 84 0 125 -5 153 -17 44 -19 48 -40 10 -56 -34 -14 -100 -68
-93 -75 3 -3 26 8 50 23 25 16 56 32 70 36 23 7 23 6 -6 -18 -30 -25 -62 -82
-52 -92 2 -3 19 15 36 40 17 25 36 45 42 45 12 0 13 -17 1 -24 -8 -6 -25 -61
-37 -126 -10 -58 12 -21 25 42 7 32 16 60 21 63 5 3 16 -16 24 -42 l16 -48 -5
40 c-3 22 -8 51 -11 65 -12 51 50 -64 72 -135 28 -87 32 -47 5 47 l-19 67 29
10 c16 5 29 15 29 22 0 20 50 -32 73 -76 19 -35 21 -57 22 -170 0 -100 -4
-142 -18 -184 -25 -74 -52 -130 -80 -165 l-23 -28 -18 27 c-18 27 -18 28 9 81
15 29 25 60 23 70 -2 10 -14 -7 -32 -44 -16 -33 -37 -63 -47 -65 -16 -4 -17 0
-12 47 7 56 7 57 5 139 -3 93 -22 67 -22 -30 0 -128 -8 -163 -34 -163 -12 0
-31 -7 -42 -15 -29 -22 -41 -19 -88 25 -134 124 -188 412 -96 516 53 61 33 66
-49 11 -62 -42 -254 -131 -341 -158 -58 -19 -97 -24 -175 -23 -120 0 -255 13
-255 23 0 4 19 14 43 20 153 46 517 213 517 238 0 2 -26 -10 -57 -26 -65 -32
-133 -62 -133 -57 0 2 18 16 41 30 70 47 37 39 -57 -13 -109 -61 -192 -89
-399 -135 -173 -39 -245 -52 -245 -43 0 2 41 29 91 58 86 51 218 153 319 248
57 54 35 43 -60 -30 -77 -58 -223 -150 -309 -194 l-49 -24 13 54 c14 64 63
143 114 186 l36 31 -33 -18 c-18 -11 -76 -59 -128 -109 -83 -79 -94 -87 -94
-65 0 41 44 122 90 167 44 43 144 101 212 123 21 6 40 16 43 21 8 11 -45 1
-112 -22 -29 -9 -53 -14 -53 -9 0 5 42 47 93 94 102 95 174 139 287 173 67 21
91 23 215 19 110 -3 155 -8 210 -26z m-2269 -66 l6 -39 -21 37 c-12 21 -21 46
-21 55 0 33 30 -11 36 -53z m3066 -62 c26 -17 73 -75 96 -119 l12 -21 -50 19
c-28 10 -63 19 -78 18 -21 -1 -16 -4 24 -17 75 -25 151 -78 179 -127 27 -45
42 -122 31 -152 -7 -16 -10 -14 -23 11 l-16 30 -22 -45 c-13 -24 -33 -53 -45
-64 l-22 -20 6 31 c19 88 -66 218 -154 234 -46 9 -114 -2 -125 -20 -13 -21
-31 -8 -60 45 -28 52 -29 57 -17 102 7 27 21 56 31 66 45 45 182 63 233 29z
m-2372 -144 c36 -28 65 -58 66 -68 1 -10 13 -33 28 -51 39 -46 63 -98 71 -154
4 -28 25 -82 46 -121 52 -94 63 -156 45 -244 -18 -84 -51 -149 -113 -221 -98
-116 -227 -197 -379 -241 -108 -31 -301 -31 -419 1 -120 31 -238 94 -308 162
l-60 58 -35 -27 c-29 -22 -48 -27 -108 -30 -62 -4 -79 -1 -114 19 -25 14 -52
41 -67 67 -22 36 -25 52 -21 104 4 55 8 64 41 94 31 28 44 34 83 34 42 0 50
-5 105 -57 36 -34 63 -53 68 -47 5 5 -3 56 -19 122 -21 87 -24 112 -14 112 8
0 16 -1 18 -2 2 -2 14 10 26 25 16 20 24 47 27 92 l6 63 68 25 c90 33 161 82
237 161 34 35 62 61 62 56 0 -8 -36 -128 -47 -156 -8 -21 17 -17 140 22 146
48 218 84 285 147 53 50 112 152 112 194 0 11 17 0 52 -36 29 -30 82 -76 118
-103z m-1521 -228 c5 -3 12 -25 16 -50 6 -41 6 -44 -9 -30 -19 18 -46 166 -40
212 10 71 19 58 22 -32 2 -52 7 -97 11 -100z m3870 115 c61 -31 112 -126 95
-178 -6 -19 -10 -15 -30 28 -45 93 -80 118 -179 125 l-70 5 35 17 c43 22 111
23 149 3z m-611 -505 c33 -98 83 -181 130 -215 35 -26 40 -34 36 -58 l-6 -28
48 31 c110 69 194 42 194 -62 0 -78 -38 -131 -115 -163 -51 -22 -131 -21 -156
1 -17 16 -21 14 -70 -30 -71 -64 -195 -123 -294 -141 -111 -20 -120 -19 -134
11 l-12 27 -147 -5 c-142 -5 -149 -5 -197 20 -186 93 -315 256 -315 397 0 63
14 104 58 164 17 23 33 61 37 84 11 73 29 138 40 147 19 16 75 24 75 12 0 -6
37 -23 83 -38 73 -24 97 -27 227 -28 140 0 148 1 232 33 48 18 125 52 170 75
l83 42 6 -106 c4 -67 13 -128 27 -170z m-994 -2 c-8 -26 -34 -68 -41 -68 -11
0 7 74 19 82 22 14 30 9 22 -14z m-243 -575 c62 -59 179 -238 179 -273 0 -28
11 -25 51 16 45 47 133 94 249 134 81 28 113 33 221 38 89 3 128 1 133 -7 10
-15 -1 -17 -149 -28 -136 -10 -255 -43 -368 -100 -70 -35 -52 -38 24 -5 140
63 218 84 356 94 83 7 141 7 160 1 23 -8 10 -11 -70 -16 -54 -4 -106 -11 -115
-17 -12 -7 1 -8 43 -2 93 11 178 9 182 -5 3 -9 -24 -13 -104 -16 l-108 -3 118
-2 c64 -1 117 -6 117 -10 0 -5 -46 -12 -103 -15 -180 -11 -329 -35 -447 -73
-96 -30 -125 -35 -174 -31 -32 3 -62 10 -65 15 -3 6 -52 43 -107 84 -207 149
-234 172 -219 181 15 8 42 -2 67 -25 49 -45 71 -62 58 -43 -29 39 -95 97 -122
107 -16 5 -28 14 -28 19 0 13 13 11 62 -11 45 -20 104 -78 167 -164 19 -26 48
-56 65 -67 l31 -21 -27 25 c-14 13 -43 46 -63 73 -69 91 -127 154 -141 154
-21 0 -17 17 5 23 13 3 30 -10 60 -44 22 -26 41 -52 41 -56 0 -5 30 -45 68
-89 37 -45 77 -94 90 -110 14 -18 11 -9 -8 23 -17 28 -54 78 -83 112 -124 144
-152 191 -116 191 6 0 37 -26 70 -57z m-751 -16 l18 -48 -25 -23 c-54 -51 -65
-52 -156 -21 -113 39 -140 53 -133 71 3 9 6 24 6 35 0 17 8 19 78 20 42 0 95
4 117 9 66 14 75 9 95 -43z m227 16 c4 -10 13 -24 21 -32 11 -11 11 -15 1 -22
-7 -4 -17 -5 -21 -3 -5 3 -11 -3 -14 -13 -3 -10 -10 -26 -15 -36 -5 -10 -7
-22 -4 -27 3 -5 -3 -7 -14 -5 -14 2 -18 -1 -14 -11 3 -8 0 -14 -6 -14 -7 0 -9
-9 -5 -24 3 -13 1 -27 -5 -30 -6 -4 -11 -16 -11 -27 0 -14 -5 -19 -17 -17 -10
2 -16 11 -15 19 2 8 1 11 -3 7 -4 -3 -17 2 -29 13 l-22 20 38 40 c32 34 38 46
38 84 0 25 4 45 9 45 4 0 6 11 3 25 -4 23 -2 25 37 25 30 0 43 -5 48 -17z
m281 -32 c10 -6 6 -10 -15 -16 -15 -5 -32 -7 -36 -6 -5 1 -6 -3 -2 -8 3 -6 -9
-18 -27 -27 -44 -23 -144 -103 -193 -155 -24 -25 -10 -16 33 23 63 56 237 167
246 157 2 -2 6 -19 9 -36 6 -32 4 -34 -46 -59 -28 -15 -102 -60 -164 -100
-108 -72 -158 -91 -191 -70 -5 3 -12 1 -14 -6 -3 -7 -37 7 -94 39 -131 75
-374 155 -374 123 0 -5 11 -10 24 -10 75 0 352 -107 393 -152 23 -26 5 -22
-78 16 -41 19 -112 46 -158 60 -89 28 -336 80 -435 91 -32 4 -54 10 -50 15 9
8 144 -2 199 -16 17 -4 26 -3 22 2 -4 5 -52 16 -105 25 -74 13 -88 17 -57 19
40 2 40 2 10 11 -20 5 4 7 70 5 l100 -4 -82 16 c-46 8 -83 19 -83 24 0 11 28
10 160 -6 213 -27 432 -116 542 -220 31 -30 38 -32 38 -11 0 16 155 176 214
221 79 59 116 73 144 55z m-209 -45 c9 -10 7 -17 -6 -27 -16 -12 -17 -12 -6 2
10 12 10 18 1 27 -7 7 -9 12 -6 12 3 0 11 -6 17 -14z m1451 -88 c0 -46 11 -67
34 -65 31 3 35 -46 4 -67 -33 -24 -41 -20 -34 17 5 27 0 42 -23 77 -31 47 -32
60 0 60 13 0 19 -7 19 -22z m268 -161 c33 -57 139 -320 132 -325 -3 -1 -51 -4
-108 -5 l-102 -2 -10 35 c-5 19 -14 60 -20 90 -6 30 -16 67 -21 81 -8 20 -5
38 11 80 22 55 67 112 81 103 4 -2 21 -28 37 -57z m-2725 -109 c3 -38 0 -58
-7 -59 -21 -2 -31 -5 -58 -17 -27 -11 -58 -7 -58 7 0 4 11 18 25 31 14 13 25
28 25 32 0 17 53 79 61 71 4 -4 9 -34 12 -65z m2977 53 c0 -5 -7 -11 -15 -15
-15 -5 -20 5 -8 17 9 10 23 9 23 -2z m134 -18 c8 -20 -12 -35 -39 -28 -11 2
-28 5 -37 5 -26 0 -22 28 5 33 46 9 65 6 71 -10z m-625 -50 c6 -10 11 -13 11
-6 0 7 7 10 15 7 8 -4 12 -10 9 -15 -3 -5 -1 -9 4 -9 11 0 4 -38 -8 -45 -15
-9 -60 36 -60 61 0 28 15 32 29 7z m42 -171 c5 -13 9 -38 9 -55 0 -59 11 -76
72 -113 62 -38 219 -107 226 -100 12 12 -22 41 -73 61 -57 24 -75 38 -75 62 0
18 72 35 133 31 l51 -3 24 -75 c13 -41 26 -105 29 -142 5 -60 3 -71 -21 -112
-32 -54 -56 -63 -132 -48 -81 17 -139 55 -244 163 -95 96 -95 97 -170 114 -89
21 -180 59 -180 76 0 6 7 8 17 5 25 -10 103 -20 103 -13 0 3 -30 19 -67 37
-37 17 -76 38 -85 47 -34 31 -8 29 58 -4 65 -32 114 -43 114 -23 0 5 -13 16
-30 25 -68 35 -160 107 -160 125 0 17 4 16 43 -9 57 -39 137 -81 153 -81 25 0
15 19 -18 36 -61 31 -130 86 -120 96 6 6 55 -15 131 -56 67 -36 124 -66 127
-66 2 0 4 11 4 24 0 15 -13 35 -34 54 -35 31 -52 64 -41 82 8 13 144 -107 156
-138z m-2161 114 c0 -16 -15 -37 -47 -65 l-48 -41 22 -19 c12 -10 43 -22 68
-25 38 -6 59 -1 146 33 115 47 129 49 129 21 0 -25 -31 -45 -133 -86 -131 -53
-109 -72 38 -34 87 22 121 25 130 10 9 -15 -66 -45 -162 -65 -46 -10 -83 -21
-83 -25 0 -11 39 -19 69 -15 97 15 111 15 111 1 0 -20 -24 -27 -113 -33 -82
-6 -103 -25 -34 -31 21 -2 35 -7 32 -13 -4 -5 -60 -9 -125 -9 -99 0 -140 -5
-247 -31 -167 -41 -260 -44 -321 -9 -111 63 -111 166 1 329 l30 44 57 -6 c55
-5 132 -35 146 -58 3 -6 -2 -20 -13 -31 -16 -15 -35 -19 -96 -21 -60 -2 -80
-6 -94 -21 -18 -18 -14 -18 117 -13 74 3 145 9 157 12 12 4 42 37 66 74 35 52
58 75 100 99 31 17 58 36 62 42 12 19 35 10 35 -14z m1081 -4 c37 -30 19 -53
-38 -51 -27 1 -63 -1 -80 -5 -28 -6 -33 -5 -33 11 0 10 4 23 8 29 24 36 106
45 143 16z m29 -92 c48 -34 33 -44 -62 -43 -120 2 -139 17 -71 52 44 22 94 19
133 -9z m610 -65 c-8 -41 -13 -24 -10 33 1 18 -3 32 -10 32 -6 0 -8 5 -4 11
14 23 32 -34 24 -76z m-533 23 c-3 -8 -6 -5 -6 6 -1 11 2 17 5 13 3 -3 4 -12
1 -19z m2424 -45 c47 -42 83 -108 104 -190 23 -85 23 -402 1 -506 -18 -81 -34
-133 -40 -126 -2 2 1 38 6 79 11 83 3 488 -10 534 -4 16 -14 32 -21 34 -11 4
-12 -6 -6 -44 l7 -49 -24 23 c-13 12 -27 22 -31 22 -18 0 -4 -51 26 -90 l32
-44 0 -196 c-1 -151 -5 -211 -18 -263 -19 -75 -111 -277 -145 -317 l-21 -25
15 55 c23 88 29 192 13 247 -7 26 -12 49 -10 51 1 2 -10 12 -24 24 -14 11 -32
32 -40 48 -14 27 -13 28 12 28 22 0 30 -10 55 -65 30 -67 47 -75 59 -29 13 47
13 625 0 685 -12 60 -15 134 -4 144 12 12 23 7 64 -30z m-2519 17 c45 -13 57
-37 22 -46 -29 -7 -132 1 -143 11 -10 10 39 45 63 45 11 0 37 -5 58 -10z
m3263 -45 c34 -33 32 -41 -17 -49 -51 -8 -125 -44 -179 -88 -86 -69 -255 -290
-320 -418 -12 -25 -29 -54 -36 -65 -12 -18 -13 -17 -7 15 45 237 226 540 364
608 66 32 162 31 195 -3z m-3215 -50 c0 -20 -5 -25 -26 -25 -33 0 -104 21
-104 30 0 15 16 20 72 20 55 0 58 -1 58 -25z m3298 -51 c12 -8 22 -21 22 -27
0 -7 -41 -46 -91 -87 -121 -99 -250 -236 -418 -444 -77 -94 -167 -198 -200
-231 l-62 -60 15 40 c80 223 341 609 495 732 104 83 190 111 239 77z m-3346
-96 c-8 -8 -9 -4 -5 13 4 13 8 18 11 10 2 -7 -1 -18 -6 -23z m997 -63 c23 -30
40 -55 39 -56 -2 -1 -31 -2 -65 -3 -56 -2 -61 0 -48 14 8 8 17 35 21 58 4 23
8 42 9 42 1 0 21 -25 44 -55z m-1079 -5 c0 -26 -22 -35 -50 -20 -21 11 -21 12
-3 25 27 21 53 18 53 -5z m246 -52 c33 -20 79 -39 104 -43 74 -12 140 -104
140 -193 0 -57 -27 -155 -40 -147 -23 14 -76 104 -101 174 -28 74 -79 145 -79
109 0 -9 7 -24 16 -32 9 -9 42 -93 75 -187 58 -170 59 -171 31 -154 -15 10
-36 26 -47 35 -30 27 -61 33 -100 20 -46 -15 -65 -44 -65 -99 0 -54 -2 -52
-74 63 l-56 90 33 35 c19 20 41 47 51 61 41 62 2 183 -76 234 -33 21 -34 32
-11 59 15 16 28 18 79 15 49 -3 74 -11 120 -40z m-2839 -135 c-5 -140 -10
-182 -31 -253 -36 -118 -46 -196 -47 -364 0 -81 -4 -146 -10 -146 -15 0 -56
91 -70 155 -7 33 -13 123 -13 200 -1 157 4 175 75 252 40 43 50 73 25 73 -7 0
-20 -10 -29 -22 -14 -22 -14 -20 -9 30 3 33 1 52 -6 52 -12 0 -18 -16 -28 -80
-3 -24 -12 -54 -19 -65 -34 -53 -47 -134 -42 -268 2 -73 7 -145 10 -162 4 -19
-6 -6 -26 35 -30 62 -32 71 -35 203 -4 155 12 230 71 336 34 61 154 191 176
191 11 0 13 -31 8 -167z m3522 122 c11 -7 13 -7 8 1 -3 6 0 11 9 11 18 0 19 2
-105 -148 -100 -121 -104 -123 -162 -93 -15 7 -53 39 -85 71 -33 32 -79 76
-103 97 -31 27 -37 36 -20 30 38 -14 144 -6 206 15 32 11 72 21 88 24 51 8
149 3 164 -8z m-1972 -25 c21 -10 49 -21 63 -24 14 -3 45 -12 69 -21 24 -9 50
-14 57 -11 7 3 15 -2 18 -10 4 -9 21 -14 53 -15 42 -1 45 -2 20 -9 -16 -5 -37
-7 -47 -5 -11 2 -22 0 -25 -6 -9 -13 -106 -11 -131 4 -34 19 -139 117 -126
117 6 0 28 -9 49 -20z m2170 -21 c47 -23 149 -129 189 -196 36 -61 42 -134 16
-219 -12 -38 -28 -78 -37 -89 -12 -16 -14 -17 -9 -2 6 15 -2 17 -75 17 -58 0
-89 5 -106 16 -32 21 -31 29 6 72 30 34 59 89 59 112 0 18 -17 10 -27 -13 -21
-46 -123 -154 -283 -302 -111 -102 -175 -170 -202 -212 -48 -76 -80 -103 -123
-103 -49 0 -87 48 -100 127 -6 40 -11 45 -68 74 -34 17 -68 36 -75 42 -15 12
-45 69 -57 105 -6 21 -4 23 14 17 20 -6 20 -5 -4 19 -34 34 -32 46 9 39 19 -3
36 -1 40 6 5 7 -6 11 -34 11 -40 0 -41 1 -38 31 2 19 12 38 24 45 18 13 26 11
69 -11 26 -15 65 -41 86 -59 61 -52 143 -90 167 -77 11 6 76 95 145 199 116
175 162 236 238 320 52 57 104 66 176 31z m302 -161 c29 -22 51 -23 51 -3 0 8
8 15 18 15 23 0 72 -100 74 -150 1 -50 -12 -120 -23 -120 -5 0 -26 27 -47 59
-20 33 -55 88 -77 123 -21 35 -57 83 -80 108 l-40 44 50 -29 c28 -15 61 -36
74 -47z m-4524 -128 c52 -107 135 -251 187 -327 28 -41 28 -42 6 -34 -36 13
-182 276 -244 439 -24 64 -32 97 -11 52 6 -14 34 -72 62 -130z m5524 16 c7 -8
2 -11 -17 -10 -16 0 -28 7 -30 17 -2 11 2 14 17 10 11 -3 25 -10 30 -17z
m-3139 -41 c0 -8 -10 -19 -21 -26 -22 -11 -21 -3 4 29 12 16 17 15 17 -3z
m740 -79 c0 -3 -13 0 -30 5 -26 9 -28 14 -19 30 10 19 11 19 30 -5 10 -13 19
-27 19 -30z m-650 9 c20 -24 6 -28 -15 -5 -10 11 -13 20 -8 20 6 0 16 -7 23
-15z m-2626 -16 c43 -13 77 -31 95 -50 28 -29 63 -104 75 -162 8 -34 55 -64
115 -73 35 -5 40 -9 26 -16 -24 -14 -90 -2 -152 27 -64 29 -171 100 -196 129
-23 26 -107 153 -107 160 0 13 82 5 144 -15z m6153 -21 c-8 -20 -24 -38 -36
-41 -19 -5 -18 -1 11 39 36 51 45 51 25 2z m-2951 -9 c6 -10 -26 -12 -50 -3
-9 3 -14 10 -11 14 6 9 53 1 61 -11z m3287 0 c34 -9 36 -12 26 -32 -39 -75
-83 -109 -172 -133 -58 -15 -80 -9 -170 44 -42 24 -77 38 -90 36 -21 -4 -21
-4 -2 5 35 17 88 12 143 -14 30 -14 59 -22 65 -18 6 4 29 6 52 5 l40 -2 -23
18 c-26 20 -20 32 15 32 13 0 23 5 23 10 0 30 -88 22 -121 -11 -30 -30 -37
-14 -8 17 58 62 110 72 222 43z m-5743 -49 c0 -33 -27 -96 -37 -86 -3 3 0 12
7 21 7 8 9 23 5 32 -12 32 -45 -24 -45 -77 0 -25 -9 -77 -20 -115 -11 -38 -21
-99 -21 -135 -1 -36 -3 -57 -6 -47 -2 9 -9 17 -14 17 -5 0 -9 43 -9 96 0 81 5
110 31 187 30 90 63 137 95 137 9 0 14 -11 14 -30z m2575 -62 c-4 -40 -10
-122 -14 -183 l-8 -110 -2 106 c-1 132 9 259 21 259 6 0 7 -29 3 -72z m-61
-35 c-13 -194 -17 -216 -39 -219 -11 -2 -37 1 -57 7 -34 9 -39 15 -53 61 -19
64 -19 125 -1 169 20 48 44 67 91 72 22 2 46 4 53 5 11 2 12 -18 6 -95z m-228
70 c-13 -41 -26 -129 -26 -174 0 -50 -7 -57 -44 -43 -12 4 -16 19 -16 53 1 83
16 134 47 158 34 27 46 29 39 6z m348 -168 c-7 -73 -15 -108 -27 -120 -16 -15
-17 -15 -17 8 0 13 3 27 8 31 4 4 8 49 8 99 2 127 1 121 21 102 15 -15 15 -29
7 -120z m2679 117 c15 -6 6 -26 -65 -143 -46 -74 -90 -145 -99 -157 l-16 -22
-47 21 -47 20 34 47 c19 26 51 72 72 102 49 72 115 140 135 139 8 0 23 -4 33
-7z m-3893 -52 c0 -14 -49 -32 -62 -24 -6 4 2 13 18 20 37 16 44 16 44 4z
m1325 -56 c21 -30 50 -61 65 -69 14 -7 33 -21 41 -31 13 -16 11 -17 -29 -11
-46 6 -76 27 -97 67 -12 25 -29 100 -22 100 2 0 21 -25 42 -56z m-1121 -14
c15 -33 30 -83 33 -111 5 -43 3 -54 -12 -65 -11 -8 -22 -14 -26 -14 -3 0 -9
28 -12 61 -3 38 -16 83 -34 120 -18 36 -25 60 -19 63 32 13 45 3 70 -54z m104
38 c2 -11 -3 -18 -13 -18 -9 0 -13 -4 -10 -10 11 -17 -7 -11 -21 8 -22 28 -17
44 13 40 17 -2 29 -10 31 -20z m-622 -24 l112 -7 -5 -38 c-6 -43 22 -224 42
-272 35 -83 76 -104 147 -73 18 8 52 19 75 25 30 8 58 28 95 66 66 68 196 129
256 119 33 -5 43 0 86 35 54 46 83 51 144 25 20 -8 71 -26 112 -40 99 -33 239
-107 275 -143 l28 -30 -76 -303 c-41 -167 -79 -323 -84 -348 -12 -67 -37 -65
-97 5 -61 71 -172 156 -306 232 -194 112 -330 159 -650 227 -118 25 -387 55
-600 66 -344 19 -435 28 -521 52 l-84 23 70 7 c72 6 108 20 333 121 166 76
273 135 378 210 83 60 91 63 124 55 19 -4 85 -11 146 -14z m167 -6 c-4 -7 -10
-33 -14 -58 l-6 -45 -2 38 c-1 35 12 77 25 77 3 0 2 -6 -3 -12z m3040 -30 c39
-23 114 -61 167 -86 96 -45 378 -152 402 -152 7 0 19 -4 27 -9 41 -26 -426
-112 -734 -136 -116 -9 -351 -34 -415 -45 -652 -106 -951 -231 -1200 -498
l-85 -91 -44 11 -43 11 7 56 c10 78 48 261 88 421 19 74 37 147 41 162 18 76
207 211 328 233 36 7 37 6 53 -31 19 -45 49 -80 87 -100 63 -33 113 -7 192
100 100 135 171 159 501 162 276 2 460 11 505 23 19 5 39 9 43 10 5 1 41 -18
80 -41z m767 -16 c-41 -58 -81 -102 -93 -102 -15 0 -5 16 57 90 66 78 88 86
36 12z m-3731 -77 c28 -153 35 -212 24 -218 -5 -3 -10 11 -11 31 -1 20 -9 71
-17 112 -21 106 -33 202 -24 193 4 -4 16 -57 28 -118z m130 103 c30 -31 44
-83 45 -163 1 -90 -8 -119 -39 -133 -56 -25 -58 -22 -89 126 -16 75 -31 147
-33 159 -5 23 8 30 64 32 21 1 39 -6 52 -21z m243 -58 c-2 -16 -7 -30 -9 -30
-3 0 -3 14 -1 30 3 17 1 30 -4 30 -4 0 -8 5 -8 11 0 8 4 8 13 0 8 -6 12 -23 9
-41z m-2020 -68 c26 -48 60 -107 75 -132 14 -25 19 -38 11 -30 -25 23 -128
170 -149 213 -18 35 -18 37 -2 37 12 0 34 -29 65 -88z m139 -151 c11 -27 -6
-19 -22 11 -8 16 -8 19 2 16 6 -2 16 -14 20 -27z m5177 -68 l-3 -57 -94 -28
c-80 -24 -387 -84 -516 -102 -81 -11 -455 -68 -605 -92 -172 -27 -650 -138
-775 -179 -153 -50 -350 -159 -410 -225 -23 -26 -35 -25 -28 0 12 45 208 197
338 263 96 48 222 91 341 116 119 26 127 28 120 40 -6 10 -126 -16 -256 -55
-212 -64 -448 -212 -554 -346 -20 -26 -28 -30 -38 -20 -9 9 5 28 70 90 161
156 350 258 674 366 153 51 466 103 793 131 400 35 760 94 886 144 53 21 60
16 57 -46z m-4897 -63 c46 -16 75 -30 64 -30 -11 -1 -40 -12 -65 -25 l-45 -23
-37 21 c-33 18 -38 25 -38 57 0 42 8 54 26 40 6 -6 49 -24 95 -40z m519 -60
c250 -13 536 -44 649 -70 374 -89 727 -258 884 -424 l58 -61 -29 -9 c-25 -7
-37 -2 -92 38 -174 128 -384 203 -730 261 -85 14 -162 28 -170 30 -8 2 -60 11
-115 19 -553 83 -582 89 -648 137 -102 74 -97 68 -52 59 70 -15 205 -23 205
-12 0 5 -46 12 -103 16 -57 4 -125 13 -153 21 l-49 15 70 -5 c39 -3 162 -10
275 -15z m-343 -110 c119 -54 272 -189 316 -280 41 -85 52 -164 33 -239 -40
-155 -149 -241 -318 -249 l-88 -4 0 -47 c0 -76 19 -171 51 -249 35 -90 36 -96
4 -110 -38 -18 -91 -15 -133 7 -90 46 -112 103 -119 301 -2 80 -9 157 -15 172
-9 24 -55 65 -62 56 -2 -2 -35 -51 -74 -110 -39 -58 -77 -110 -83 -114 -38
-23 -105 6 -139 61 -37 59 -28 90 59 216 44 63 150 218 236 346 86 128 166
239 178 248 29 21 103 19 154 -5z m4413 -135 c37 -19 50 -43 50 -94 0 -28 -7
-48 -24 -67 -20 -24 -33 -29 -98 -35 -81 -8 -126 -26 -171 -68 -80 -73 -95
-196 -41 -312 61 -128 152 -197 270 -207 52 -4 70 0 115 21 77 37 129 89 129
129 0 15 -58 118 -67 118 -2 0 -29 -19 -59 -42 -82 -62 -130 -54 -169 28 -23
48 -10 66 124 178 122 103 156 116 199 79 25 -22 158 -231 179 -281 32 -78
-11 -196 -109 -299 -93 -97 -185 -143 -315 -158 -251 -29 -511 206 -552 499
-31 217 107 433 324 508 63 22 176 23 215 3z m-3713 -361 c43 -19 128 -56 188
-81 61 -25 122 -52 137 -61 60 -35 62 -119 2 -171 -40 -36 -75 -39 -120 -12
-57 35 -202 93 -236 94 -32 2 -35 -2 -75 -78 -23 -44 -42 -84 -42 -90 0 -5 46
-33 102 -62 122 -61 141 -82 127 -135 -12 -42 -61 -88 -95 -88 -12 0 -66 23
-119 50 -53 28 -103 50 -111 50 -18 0 -89 -136 -81 -156 6 -14 120 -75 226
-119 77 -32 99 -56 100 -108 0 -31 -7 -46 -34 -73 -19 -19 -44 -34 -56 -34
-22 0 -343 153 -413 197 -47 29 -77 77 -77 122 0 23 27 87 86 200 288 554 288
554 319 572 44 27 84 23 172 -17z m2989 -69 c14 -14 32 -42 41 -63 34 -84 180
-396 244 -524 38 -76 69 -150 69 -165 0 -64 -67 -123 -139 -123 -34 0 -96 40
-361 234 -102 74 -186 132 -188 127 -1 -4 47 -99 108 -212 66 -122 110 -215
110 -232 0 -20 -11 -40 -34 -63 -29 -29 -41 -34 -79 -34 -28 0 -52 6 -65 17
-26 24 -392 747 -392 776 0 29 33 82 64 102 14 9 43 19 64 22 50 7 89 -13 223
-113 234 -174 323 -236 328 -223 2 6 -38 96 -89 199 -90 183 -92 188 -80 225
24 72 125 101 176 50z m-2196 -207 c63 -44 66 -54 89 -303 11 -126 31 -331 42
-454 l22 -224 -28 -25 c-24 -20 -36 -23 -70 -19 -102 14 -123 40 -133 159 l-7
83 -130 37 c-71 20 -140 37 -152 37 -16 1 -32 -16 -65 -71 -24 -40 -54 -79
-68 -86 -54 -30 -163 29 -176 94 -6 34 -23 7 305 487 119 175 194 275 215 288
44 27 114 25 156 -3z m1377 -30 c14 -15 30 -62 47 -139 15 -64 57 -228 94
-365 58 -213 73 -256 101 -291 26 -33 32 -48 29 -78 -4 -50 -33 -71 -129 -91
-87 -19 -122 -14 -145 21 -14 21 -14 32 -4 74 11 48 10 57 -55 273 -37 123
-86 286 -111 363 -24 77 -44 149 -44 161 0 72 166 126 217 72z m-605 -97 c260
-85 414 -295 380 -519 -33 -216 -174 -359 -420 -423 -111 -29 -284 -30 -338
-2 -77 40 -76 33 -57 432 l16 351 -22 45 c-20 39 -21 50 -11 80 20 59 75 76
240 71 97 -3 130 -8 212 -35z"/>
<path d="M4959 7465 c-3 -2 -16 -6 -30 -8 -21 -4 -24 -10 -27 -52 -3 -40 -1
-47 12 -42 9 4 16 2 16 -3 0 -6 7 -10 15 -10 8 0 15 5 15 11 0 6 6 9 14 6 10
-4 13 1 11 19 -3 28 -1 29 19 8 15 -14 17 -14 32 0 14 15 14 17 0 22 -9 3 -13
10 -10 15 3 5 -2 9 -10 9 -9 0 -16 4 -16 10 0 5 -7 6 -17 3 -11 -4 -14 -3 -9
5 7 12 -6 17 -15 7z"/>
<path d="M7817 5633 c-9 -2 -15 -9 -12 -14 4 -5 1 -9 -6 -9 -7 0 -32 -9 -55
-21 -36 -17 -53 -37 -59 -69 -1 -3 -5 -16 -9 -29 -6 -18 -10 -21 -17 -10 -6 9
-9 -2 -9 -33 0 -52 -13 -63 -48 -40 -37 24 -130 12 -175 -22 -20 -16 -37 -35
-37 -43 0 -17 45 -99 65 -119 7 -8 19 -14 25 -14 6 0 8 -5 4 -12 -4 -6 -3 -8
4 -5 5 4 26 -9 46 -28 20 -19 41 -35 48 -35 18 0 48 -41 48 -66 0 -32 10 -54
25 -54 19 0 168 50 181 61 6 5 44 18 83 28 97 26 103 32 80 78 -22 43 -24 85
-8 184 11 75 -2 203 -24 216 -7 4 -8 0 -3 -13 5 -12 4 -16 -3 -9 -5 6 -11 17
-13 25 -5 23 -22 38 -37 32 -9 -3 -12 -1 -7 6 5 8 -1 12 -18 12 -13 0 -30 2
-38 4 -7 2 -21 2 -31 -1z"/>
<path d="M2794 5335 c-4 -32 -13 -49 -28 -57 -11 -6 -23 -12 -25 -14 -2 -2 12
-21 31 -42 31 -34 38 -37 62 -29 34 11 41 5 27 -22 -10 -17 -9 -20 4 -14 11 4
18 -1 22 -16 7 -29 31 -26 43 5 9 22 14 25 40 19 35 -8 100 11 100 29 0 6 -5
17 -11 23 -8 8 -5 22 10 51 12 23 21 44 21 47 0 15 -54 1 -110 -27 l-63 -33
-16 24 c-29 41 -83 101 -92 101 -4 0 -11 -20 -15 -45z"/>
<path d="M2825 5150 c-3 -5 -1 -10 4 -10 6 0 11 5 11 10 0 6 -2 10 -4 10 -3 0
-8 -4 -11 -10z"/>
<path d="M3090 4661 c0 -5 -9 -12 -19 -16 -11 -3 -24 -20 -30 -38 l-12 -32
-22 29 c-21 26 -28 28 -60 22 -58 -11 -76 -65 -34 -104 13 -12 27 -19 32 -15
4 5 3 -2 -4 -14 -6 -12 -20 -25 -31 -28 -44 -14 -32 -99 16 -111 12 -3 36 2
54 11 17 9 33 15 34 13 1 -2 10 -19 20 -39 15 -28 24 -35 46 -35 46 1 63 23
55 73 l-6 43 40 0 c98 0 110 114 13 122 -27 2 -36 7 -33 18 11 42 11 67 -1 81
-16 20 -58 35 -58 20z"/>
<path d="M6175 6650 c11 -4 54 -13 95 -19 53 -8 102 -25 170 -58 117 -58 121
-60 90 -32 -40 35 -159 88 -235 104 -77 16 -155 20 -120 5z"/>
<path d="M5968 6494 c-42 -13 -87 -33 -100 -44 -22 -20 -21 -20 32 1 82 32
143 49 207 58 l58 9 -60 0 c-38 1 -88 -8 -137 -24z"/>
<path d="M6500 6487 c0 -3 15 -10 32 -16 18 -6 28 -7 23 -2 -12 10 -55 25 -55
18z"/>
<path d="M6275 6430 c-14 -7 11 -8 81 -4 63 3 118 1 145 -6 82 -21 85 -21 54
-3 -23 13 -57 18 -145 20 -63 1 -124 -2 -135 -7z"/>
<path d="M6610 5940 c-5 -36 2 -99 16 -150 17 -61 72 -170 85 -170 13 0 13 0
-26 82 -19 40 -40 100 -46 133 -15 80 -27 123 -29 105z"/>
<path d="M6959 6373 c-13 -17 -13 -17 6 -3 11 8 22 16 24 17 2 2 0 3 -6 3 -6
0 -17 -8 -24 -17z"/>
<path d="M4598 6339 c-10 -5 -18 -21 -18 -34 0 -23 4 -25 50 -25 28 0 67 -7
87 -15 46 -20 60 -7 32 29 -37 47 -111 69 -151 45z"/>
<path d="M3893 6108 c-36 -38 -48 -61 -56 -105 -10 -51 9 -48 49 7 20 28 49
57 65 66 31 16 36 33 17 52 -20 20 -42 14 -75 -20z"/>
<path d="M4645 6096 c-38 -16 -55 -53 -55 -116 0 -60 15 -74 25 -23 11 58 22
73 55 73 20 0 43 -12 70 -36 63 -57 92 -26 41 45 -39 55 -91 77 -136 57z"/>
<path d="M4840 5951 c-12 -24 -13 -71 -2 -71 5 0 9 16 10 35 1 20 4 40 7 45 4
6 4 10 1 10 -3 0 -10 -9 -16 -19z"/>
<path d="M4887 5957 c-4 -10 -7 -31 -6 -45 l0 -27 10 25 c5 13 8 33 7 45 -3
19 -4 19 -11 2z"/>
<path d="M4927 5949 c4 -13 8 -18 11 -10 2 7 -1 18 -6 23 -8 8 -9 4 -5 -13z"/>
<path d="M4034 5921 c-41 -18 -74 -102 -59 -150 10 -33 22 -25 29 19 4 27 14
45 31 56 24 16 27 15 72 -20 69 -54 113 -43 80 21 -33 63 -101 96 -153 74z"/>
<path d="M4490 5870 c0 -5 6 -10 14 -10 27 0 28 -34 2 -55 -34 -27 -33 -36 3
-24 15 5 34 21 41 34 12 22 11 28 -5 45 -19 21 -55 27 -55 10z"/>
<path d="M4640 5755 c-35 -43 -175 -79 -355 -91 -91 -7 -95 -8 -89 -28 21 -69
92 -147 151 -167 79 -26 187 15 243 93 38 52 72 143 68 181 -3 29 -4 29 -18
12z m-160 -103 c0 -14 -71 -35 -82 -24 -6 6 -7 15 -4 21 8 13 86 15 86 3z
m-112 -89 c-10 -2 -28 -2 -40 0 -13 2 -5 4 17 4 22 1 32 -1 23 -4z m97 -64
c-4 -5 -27 -8 -53 -7 -40 1 -42 2 -12 5 19 3 39 8 44 13 11 11 28 2 21 -11z"/>
<path d="M3480 5710 c-28 -28 -28 -100 1 -126 21 -19 115 -27 152 -12 17 7 17
9 -3 35 -11 16 -21 41 -22 57 -2 23 -11 33 -43 47 -51 24 -61 23 -85 -1z m79
-21 c25 -9 31 -16 31 -41 0 -16 5 -38 10 -49 10 -17 7 -19 -35 -19 -69 0 -104
46 -75 101 12 22 24 23 69 8z"/>
<path d="M3970 5701 c-13 -25 -13 -81 0 -81 6 0 10 14 10 31 0 17 5 39 10 50
7 12 7 19 1 19 -6 0 -15 -9 -21 -19z"/>
<path d="M4031 5693 c1 -15 5 -39 9 -53 7 -20 8 -16 9 22 1 26 -3 50 -9 53 -6
4 -10 -6 -9 -22z"/>
<path d="M6335 5890 c-10 -15 2 -27 33 -33 16 -3 48 -24 71 -47 23 -23 45 -39
47 -37 9 9 -24 76 -50 102 -26 26 -88 35 -101 15z"/>
<path d="M5667 5828 c-3 -10 -14 -18 -25 -18 -21 0 -57 -45 -43 -54 5 -3 31 1
59 9 28 9 63 13 77 11 31 -6 82 -41 95 -67 14 -25 30 -24 30 1 0 36 -37 94
-72 115 -45 26 -115 28 -121 3z"/>
<path d="M5577 5694 c-15 -20 -16 -28 -7 -39 7 -8 17 -12 22 -9 6 4 5 10 -3
15 -11 7 -9 9 6 9 20 0 79 39 59 40 -5 0 -19 -7 -30 -15 -28 -21 -40 -18 -19
5 14 15 15 20 4 20 -8 0 -22 -12 -32 -26z"/>
<path d="M6263 5698 c-39 -13 -101 -63 -90 -74 4 -4 24 -2 43 5 49 18 94 7
140 -33 38 -34 39 -35 19 -50 -11 -8 -15 -16 -9 -16 6 0 17 7 24 15 7 8 16 13
20 10 4 -2 15 1 24 8 15 11 12 18 -28 73 -56 77 -72 84 -143 62z"/>
<path d="M5640 5665 c-13 -14 -19 -25 -13 -25 12 0 48 38 41 45 -2 3 -15 -6
-28 -20z"/>
<path d="M5917 5649 c-35 -20 -14 -80 28 -78 16 1 17 2 3 6 -23 6 -35 52 -17
64 20 12 7 19 -14 8z"/>
<path d="M6380 5511 c-24 -19 -46 -19 -35 0 4 5 2 9 -4 9 -12 0 -41 -40 -41
-55 0 -5 5 -2 11 8 12 21 44 23 35 2 -8 -22 12 -18 24 5 6 11 17 20 24 20 8 0
19 7 26 15 19 22 -9 19 -40 -4z"/>
<path d="M6422 5480 c-18 -17 -29 -30 -25 -30 12 1 79 59 68 59 -5 0 -25 -13
-43 -29z"/>
<path d="M6755 5500 c-28 -11 -110 -98 -102 -107 4 -3 23 9 42 27 19 18 38 31
41 27 13 -13 -6 -53 -33 -69 l-28 -17 31 -1 c17 0 36 6 42 13 18 21 25 66 13
81 -9 11 -8 15 5 20 53 20 74 -10 49 -71 l-15 -38 20 24 c58 69 14 145 -65
111z"/>
<path d="M5800 5482 c0 -39 40 -149 69 -189 66 -92 179 -96 270 -10 37 35 91
139 91 174 0 20 -3 21 -26 13 -14 -6 -76 -10 -138 -10 -101 0 -136 5 -243 36
-19 5 -23 2 -23 -14z m300 -61 c-14 -8 -59 -14 -87 -12 -7 1 -13 6 -13 11 0 6
26 10 58 10 37 -1 52 -4 42 -9z"/>
<path d="M5805 5046 c-90 -22 -325 -116 -325 -130 0 -2 60 20 133 50 81 33
162 58 210 66 42 6 77 15 77 20 0 11 -35 9 -95 -6z"/>
<path d="M3998 5093 c12 -2 32 -2 45 0 12 2 2 4 -23 4 -25 0 -35 -2 -22 -4z"/>
<path d="M4154 5091 c4 -6 20 -11 36 -11 59 0 257 -81 378 -155 61 -38 52 -22
-10 18 -62 39 -211 108 -283 130 -76 24 -129 32 -121 18z"/>
<path d="M4238 4053 c7 -3 16 -2 19 1 4 3 -2 6 -13 5 -11 0 -14 -3 -6 -6z"/>
<path d="M5415 3690 c-3 -6 4 -10 17 -10 13 0 29 -5 36 -12 9 -9 12 -7 12 10
0 18 -6 22 -29 22 -17 0 -33 -4 -36 -10z"/>
<path d="M5522 3665 c0 -16 2 -22 5 -12 2 9 2 23 0 30 -3 6 -5 -1 -5 -18z"/>
<path d="M1923 3673 c-22 -8 -14 -21 16 -28 16 -3 37 -15 47 -26 16 -17 16
-22 4 -29 -11 -7 -2 -10 28 -10 23 0 42 4 42 8 0 12 -100 92 -114 91 -6 0 -17
-3 -23 -6z"/>
<path d="M3537 3338 c-6 -4 -9 -9 -7 -11 10 -9 330 -16 330 -7 0 5 -19 11 -42
14 -68 9 -269 12 -281 4z"/>
<path d="M3425 3260 c-7 -11 97 -19 282 -22 162 -2 222 6 121 16 -93 9 -398
14 -403 6z"/>
<path d="M4505 3203 c6 -5 35 -17 65 -28 66 -22 158 -64 222 -101 51 -29 79
-25 38 6 -33 25 -154 84 -210 103 -60 20 -128 32 -115 20z"/>
<path d="M4346 3181 c-7 -10 234 -92 247 -84 15 9 -12 21 -125 58 -121 39
-115 38 -122 26z"/>
<path d="M3280 3142 c0 -19 35 -23 235 -32 110 -5 244 -12 298 -15 54 -3 97
-1 97 4 0 15 -61 21 -316 31 -137 5 -264 12 -281 16 -20 4 -33 3 -33 -4z"/>
<path d="M4090 3061 c0 -5 19 -12 43 -16 172 -28 431 -124 568 -211 34 -21 49
-22 49 -3 0 12 -159 96 -254 135 -160 65 -406 123 -406 95z"/>
<path d="M6580 3400 c-148 -12 -214 -22 -199 -29 8 -4 55 -4 104 0 50 4 138
11 198 15 59 4 107 11 107 16 0 9 -84 8 -210 -2z"/>
<path d="M6889 3346 c-2 -2 -94 -9 -204 -15 -185 -11 -298 -22 -367 -37 -40
-8 -35 -28 5 -20 64 11 225 26 397 36 180 10 220 16 220 31 0 9 -42 13 -51 5z"/>
<path d="M5932 3226 c-66 -17 -190 -68 -174 -74 7 -2 40 6 74 17 35 11 90 27
122 34 33 7 62 19 64 25 5 15 -17 14 -86 -2z"/>
<path d="M6965 3220 c-22 -5 -103 -13 -180 -20 -211 -17 -437 -40 -448 -47
-27 -16 20 -20 113 -8 58 7 177 18 265 24 208 15 315 32 315 52 0 10 -8 10
-65 -1z"/>
<path d="M5577 3144 c-82 -30 -208 -97 -199 -106 6 -6 32 2 68 20 33 16 88 42
124 57 36 15 69 31 75 36 14 13 -24 10 -68 -7z"/>
<path d="M6090 3109 c-195 -39 -310 -72 -465 -135 -188 -75 -205 -83 -205 -94
0 -16 14 -12 126 35 213 92 375 140 599 180 126 22 135 24 135 35 0 15 -30 11
-190 -21z"/>
<path d="M7540 3089 c-123 -28 -254 -48 -835 -129 -247 -34 -448 -66 -544 -86
-14 -3 -20 -9 -15 -14 5 -5 64 2 139 16 153 28 525 83 815 119 301 37 559 90
576 117 6 10 14 11 -136 -23z"/>
<path d="M3380 2921 c0 -5 30 -12 68 -16 121 -12 406 -46 455 -54 42 -7 71 0
50 12 -15 9 -148 27 -341 47 -220 23 -232 23 -232 11z"/>
<path d="M3510 2851 c0 -5 28 -12 63 -16 94 -10 266 -35 316 -46 30 -7 48 -6
55 1 5 5 7 10 4 10 -3 0 -42 7 -85 15 -69 14 -307 45 -340 45 -7 0 -13 -4 -13
-9z"/>
<path d="M4047 2819 c6 -6 50 -19 99 -30 165 -36 336 -100 449 -167 87 -52
222 -150 243 -176 28 -36 50 -45 28 -12 -26 40 -56 66 -171 145 -161 110 -276
160 -513 221 -124 33 -153 37 -135 19z"/>
<path d="M2911 2612 c-5 -10 -44 -67 -86 -127 -53 -76 -72 -111 -65 -120 20
-24 127 -69 177 -73 127 -11 215 113 151 215 -22 37 -130 123 -154 123 -7 0
-18 -8 -23 -18z"/>
<path d="M4309 1760 c-77 -109 -119 -174 -119 -186 0 -12 167 -61 176 -51 4 3
3 73 -2 154 l-9 148 -46 -65z"/>
<path d="M5058 1793 l-28 -4 0 -296 0 -295 68 4 c230 13 371 241 265 430 -58
102 -200 177 -305 161z"/>
</g>
</svg>
