<?xml version="1.0" standalone="no"?>
<!DOCTYPE svg PUBLIC "-//W3C//DTD SVG 20010904//EN"
 "http://www.w3.org/TR/2001/REC-SVG-20010904/DTD/svg10.dtd">
<svg version="1.0" xmlns="http://www.w3.org/2000/svg"
 width="100.000000pt" height="100.000000pt" viewBox="0 0 100.000000 100.000000"
 preserveAspectRatio="xMidYMid meet">

<g transform="translate(0.000000,100.000000) scale(0.100000,-0.100000)"
fill="#000000" stroke="none">
<path d="M373 799 c-196 -75 -279 -324 -166 -492 29 -43 33 -55 24 -74 -15
-32 -14 -43 4 -43 7 0 18 -6 22 -13 16 -26 85 -60 124 -61 21 0 39 -4 39 -8 0
-5 4 -8 10 -8 5 0 7 7 3 16 -4 12 -14 14 -34 10 -16 -3 -29 -3 -29 -1 0 11 53
85 60 85 10 0 20 -37 20 -77 0 -27 5 -34 27 -39 17 -5 37 -1 55 9 15 9 28 12
28 7 0 -13 37 -13 45 0 3 5 12 7 20 4 8 -4 17 1 21 9 3 9 13 13 25 10 11 -3
19 0 19 6 0 7 -5 9 -10 6 -6 -4 -22 1 -36 10 -25 16 -25 16 -15 -4 14 -24 14
-31 1 -31 -5 0 -19 18 -30 39 -23 46 -12 61 26 36 25 -16 25 -16 15 4 -7 13
-8 22 -1 26 5 3 17 -10 27 -29 14 -30 22 -36 47 -35 27 2 28 2 6 6 -30 5 -50
29 -50 60 0 26 36 51 52 35 7 -7 3 -12 -11 -17 -23 -7 -27 -25 -9 -43 15 -15
38 -16 38 -2 0 6 -8 10 -17 10 -16 0 -16 1 0 18 17 16 19 16 33 -2 8 -11 14
-15 14 -10 0 6 -5 15 -11 21 -8 8 0 25 26 62 20 28 33 51 28 51 -4 0 -3 4 3 8
6 4 14 21 18 37 l8 30 -25 -23 c-14 -13 -31 -37 -38 -54 -7 -17 -17 -27 -25
-24 -7 3 -31 10 -53 16 -40 11 -45 17 -41 54 1 11 -3 15 -9 12 -11 -7 -60 23
-61 37 0 4 7 7 15 7 8 0 15 -4 15 -9 0 -6 9 -9 19 -8 15 1 18 7 16 27 -2 14
-4 33 -4 43 -1 10 -6 15 -11 12 -6 -4 -8 -10 -5 -15 3 -4 -5 -8 -18 -8 -12 0
-38 -3 -57 -5 -36 -5 -64 8 -54 24 3 5 0 9 -5 9 -6 0 -11 -6 -11 -14 0 -8 -7
-17 -16 -20 -14 -5 -15 -4 -4 9 10 12 10 15 0 15 -9 0 -7 8 6 23 19 22 19 22
-2 5 -11 -10 -32 -18 -45 -18 -29 0 -49 -14 -71 -50 -15 -24 -14 -25 8 -26 13
-1 24 2 24 7 0 6 9 5 20 -1 31 -17 13 -32 -32 -28 -32 3 -36 2 -23 -8 11 -9
13 -14 5 -19 -7 -4 -10 -15 -7 -26 4 -14 -5 -21 -41 -33 -59 -21 -65 -20 -57
4 4 12 2 20 -5 20 -6 0 -8 11 -6 25 3 15 1 23 -5 20 -5 -4 -8 -9 -5 -13 2 -4
0 -16 -4 -27 -7 -17 -11 -13 -30 29 -58 128 28 312 178 378 65 29 179 29 244
1 111 -50 191 -162 192 -270 1 -39 6 -64 13 -67 35 -14 25 103 -16 191 -35 73
-112 144 -187 172 -72 28 -180 27 -251 0z m62 -299 c-3 -5 -1 -10 6 -10 7 0
10 -2 7 -5 -3 -3 -20 -2 -38 2 -29 5 -31 7 -15 14 29 11 47 11 40 -1z m202
-42 c-3 -8 -6 -5 -6 6 -1 11 2 17 5 13 3 -3 4 -12 1 -19z m-122 -8 c3 -5 1
-10 -4 -10 -6 0 -11 5 -11 10 0 6 2 10 4 10 3 0 8 -4 11 -10z m30 -50 c4 -6 2
-17 -4 -24 -9 -10 -8 -15 5 -20 10 -4 22 1 30 11 16 21 18 37 4 28 -5 -3 -10
-2 -10 3 0 18 50 10 61 -9 12 -23 4 -40 -15 -33 -7 3 -18 -1 -24 -9 -10 -11
-4 -13 33 -11 49 3 102 -13 110 -34 4 -10 -4 -11 -33 -7 -29 5 -34 4 -22 -5
12 -9 4 -11 -35 -7 -27 2 -43 2 -35 -1 8 -3 -12 -13 -45 -22 -55 -15 -61 -15
-67 -1 -6 14 -7 14 -7 -1 -1 -21 -12 -23 -30 -5 -6 6 -22 12 -34 13 -12 0 -35
2 -52 3 -27 2 -28 3 -10 12 15 7 13 8 -12 3 -17 -3 -42 0 -54 6 -21 12 -20 13
21 31 51 23 60 23 60 5 0 -24 15 -27 48 -10 33 16 72 6 72 -19 0 -7 5 -4 11 6
8 13 18 17 34 13 22 -6 22 -5 -4 23 -28 29 -36 71 -14 71 6 0 15 -5 18 -10z
m-233 -137 c23 -20 23 -28 -1 -50 -10 -10 -21 -27 -23 -38 -4 -18 -6 -18 -18
7 -7 16 -18 24 -26 21 -19 -7 -17 4 7 43 23 38 34 41 61 17z m74 -49 c18 -15
18 -15 -8 -9 -27 5 -38 -7 -18 -20 15 -9 2 -25 -15 -18 -21 7 -19 -7 3 -23 14
-11 15 -13 1 -14 -8 0 -24 6 -34 14 -18 13 -18 14 4 50 25 40 38 44 67 20z
m152 -36 c30 -25 1 -78 -44 -78 -22 0 -24 4 -24 43 0 24 3 47 7 50 8 8 42 -1
61 -15z m47 -26 c10 -33 10 -42 1 -42 -7 0 -18 17 -24 39 -15 48 -15 54 0 49
6 -2 17 -23 23 -46z"/>
<path d="M275 241 c-6 -11 9 -23 19 -14 9 9 7 23 -3 23 -6 0 -12 -4 -16 -9z"/>
<path d="M490 145 c0 -28 24 -34 34 -9 8 20 -1 34 -20 34 -8 0 -14 -10 -14
-25z"/>
<path d="M363 695 c-44 -19 -71 -74 -55 -110 14 -30 42 -30 57 0 6 11 21 21
33 21 13 1 28 6 35 13 17 17 35 13 43 -11 l7 -23 8 23 c11 29 2 52 -30 79 -30
26 -53 28 -98 8z"/>
<path d="M628 645 c17 -8 32 -21 32 -30 0 -8 3 -15 8 -16 4 0 18 -3 32 -5 18
-3 12 4 -25 31 -28 19 -57 35 -65 35 -8 -1 0 -7 18 -15z"/>
<path d="M535 630 c-22 -24 -13 -50 17 -49 l23 0 -22 9 c-27 11 -28 18 -6 42
9 10 14 18 11 18 -3 0 -13 -9 -23 -20z"/>
<path d="M627 580 c10 -39 63 -54 63 -18 0 10 -3 9 -9 -1 -12 -19 -41 -6 -41
19 0 11 -4 20 -9 20 -5 0 -7 -9 -4 -20z"/>
<path d="M425 550 c-19 -8 -19 -9 3 -9 12 -1 22 4 22 9 0 6 -1 10 -2 9 -2 0
-12 -4 -23 -9z"/>
<path d="M754 536 c-3 -9 -11 -13 -16 -10 -6 4 -9 1 -6 -7 8 -23 43 -23 45 0
2 26 -15 38 -23 17z"/>
<path d="M331 536 c2 -2 18 -6 34 -10 22 -5 26 -4 15 4 -14 9 -59 15 -49 6z"/>
<path d="M578 518 c9 -9 15 -9 24 0 9 9 7 12 -12 12 -19 0 -21 -3 -12 -12z"/>
<path d="M276 508 c3 -5 10 -6 15 -3 13 9 11 12 -6 12 -8 0 -12 -4 -9 -9z"/>
<path d="M675 480 c-3 -5 1 -10 10 -10 9 0 13 5 10 10 -3 6 -8 10 -10 10 -2 0
-7 -4 -10 -10z"/>
<path d="M290 440 c0 -5 5 -10 11 -10 5 0 7 5 4 10 -3 6 -8 10 -11 10 -2 0 -4
-4 -4 -10z"/>
<path d="M751 424 c1 -16 -2 -37 -6 -46 -4 -11 -3 -18 4 -18 6 0 8 -7 5 -15
-4 -8 -3 -15 0 -15 7 0 18 27 30 70 6 19 5 21 -3 10 -8 -11 -11 -11 -12 -2 -3
27 -4 31 -12 38 -4 4 -7 -5 -6 -22z"/>
<path d="M756 183 c-6 -14 -5 -15 5 -6 7 7 10 15 7 18 -3 3 -9 -2 -12 -12z"/>
<path d="M415 160 c-3 -5 -1 -10 4 -10 6 0 11 5 11 10 0 6 -2 10 -4 10 -3 0
-8 -4 -11 -10z"/>
</g>
</svg>
